# xmcd
#
# Track frame offsets: 
#        150
#        27238
#        46329
#        65430
#        82752
#        98238
#        118509
#        137161
#        153788
#        167260
#        184247
#        206655
#
# Disc length: 3070 seconds
#
# Revision: 0
# Processed by: cddbd v1.5.1PL2 Copyright (c) Steve Scherf et al.
# Submitted via: ExactAudioCopy v0.95a5
#
DISCID=920bfc0c
DTITLE=Rob Tognoni - The Ironyard
DYEAR=2006
DGENRE=blues
TTITLE0=Words Of A Desperate Man
TTITLE1=No Guarantee
TTITLE2=See Me In The Evening
TTITLE3=All Mine
TTITLE4=Shoot, Hoot, Electrocute
TTITLE5=Can't Take Lovin'
TTITLE6=The Ironyard
TTITLE7=Devil Outta Me
TTITLE8=Lands Of Cirrus
TTITLE9=The Real Thing
TTITLE10=Silver Machine
TTITLE11=Hey Joe (Live)
EXTD=
EXTT0=
EXTT1=
EXTT2=
EXTT3=
EXTT4=
EXTT5=
EXTT6=
EXTT7=
EXTT8=
EXTT9=
EXTT10=
EXTT11=
PLAYORDER=
